/* XPM */
static char * roadnrail_16_xpm[] = {
"16 16 137 2",
"  	c None",
". 	c #5F5F5F",
"+ 	c #A2A2A2",
"@ 	c #929292",
"# 	c #8D8D8D",
"$ 	c #8E8E8E",
"% 	c #888888",
"& 	c #A3A2A2",
"* 	c #BCBDBD",
"= 	c #A5A09F",
"- 	c #7F7F7F",
"; 	c #2D2D2D",
"> 	c #343434",
", 	c #555555",
"' 	c #979797",
") 	c #999999",
"! 	c #8C8C8C",
"~ 	c #A5A5A5",
"{ 	c #B7B6B6",
"] 	c #AEA7A6",
"^ 	c #938A88",
"/ 	c #6F5E5B",
"( 	c #796B68",
"_ 	c #6B6B6B",
": 	c #404040",
"< 	c #000000",
"[ 	c #323232",
"} 	c #737373",
"| 	c #2F2F2F",
"1 	c #535353",
"2 	c #C3C3C3",
"3 	c #B1ADAC",
"4 	c #7C6D6B",
"5 	c #766965",
"6 	c #776865",
"7 	c #7A6A66",
"8 	c #B5AFAF",
"9 	c #B5B3B3",
"0 	c #A19F9F",
"a 	c #797877",
"b 	c #383838",
"c 	c #262626",
"d 	c #565656",
"e 	c #0F0F0F",
"f 	c #464646",
"g 	c #7A7B7B",
"h 	c #B8AFAD",
"i 	c #B7B4B4",
"j 	c #B1B1B2",
"k 	c #8B8B8B",
"l 	c #9C9897",
"m 	c #B2AEAD",
"n 	c #ADA7A6",
"o 	c #6E5C58",
"p 	c #9F9D9C",
"q 	c #5D5E5E",
"r 	c #666666",
"s 	c #090909",
"t 	c #020202",
"u 	c #535454",
"v 	c #8F8F8F",
"w 	c #CECFCF",
"x 	c #8E7E7B",
"y 	c #71625F",
"z 	c #695652",
"A 	c #685652",
"B 	c #988D8B",
"C 	c #D7D7D7",
"D 	c #707070",
"E 	c #818181",
"F 	c #424242",
"G 	c #949494",
"H 	c #543C37",
"I 	c #827A78",
"J 	c #766968",
"K 	c #67524F",
"L 	c #766865",
"M 	c #C0B9B8",
"N 	c #A7A8A8",
"O 	c #989898",
"P 	c #8D8786",
"Q 	c #6A5955",
"R 	c #50342E",
"S 	c #746663",
"T 	c #D3D2D2",
"U 	c #898787",
"V 	c #202020",
"W 	c #5A423D",
"X 	c #533834",
"Y 	c #6C5C59",
"Z 	c #BDB7B6",
"` 	c #A4A3A3",
" .	c #A1A1A1",
"..	c #101010",
"+.	c #434343",
"@.	c #5F4A45",
"#.	c #6E5E5B",
"$.	c #665450",
"%.	c #CECCCC",
"&.	c #8A8A8A",
"*.	c #4E4E4E",
"=.	c #060606",
"-.	c #757575",
";.	c #837B7A",
">.	c #857C7A",
",.	c #766B69",
"'.	c #CDCAC9",
").	c #545454",
"!.	c #5D4743",
"~.	c #513732",
"{.	c #43231D",
"].	c #D3D2D1",
"^.	c #86807F",
"/.	c #3D3D3D",
"(.	c #746865",
"_.	c #7F7674",
":.	c #847E7D",
"<.	c #C8C6C5",
"[.	c #969696",
"}.	c #282828",
"|.	c #50342F",
"1.	c #452721",
"2.	c #3C1B15",
"3.	c #76605C",
"4.	c #A9A09F",
"5.	c #868180",
"6.	c #8C8888",
"7.	c #92908F",
"8.	c #90908F",
"9.	c #DDDEDE",
"0.	c #010101",
"a.	c #40211B",
"b.	c #3D1D17",
"c.	c #3C1C16",
"d.	c #77635F",
"e.	c #9C918F",
"f.	c #8F9090",
". + @ # $ $ $ $ $ $ $ $ % & * = ",
"- ; > , ' ) # $ ! % ~ { ] ^ / ( ",
"_ : < [ } | 1 # 2 3 4 5 6 7 8 9 ",
"# $ 0 a b c < d e f g h i j $ ! ",
"k l m n o p q < r s < t u @ v $ ",
"w x y z / A B C D e ; E < < F G ",
"H I J K L M N k ! O : < v > < < ",
"P Q R S T U $ $ $ $ G d < V < < ",
"W X Y Z ` $ $ $ $ $ $  ...< +.t ",
"@.#.$.%.&.$ $ $ $ $ $ # *.< =.-.",
";.>.,.'.# $ $ $ $ $ $ # ).< < &.",
"!.~.{.].^.$ $ $ $ $ $ # 1 < < /.",
"(._.:.<.[.$ $ $ $ $ $ [.}.< < < ",
"|.1.2.3.4.v $ $ $ $ $ O < < < < ",
"5.6.7.8.9.&.$ $ $ $ ! 1 0.< < < ",
"a.b.c.c.d.e.f.$ $ $ [.< < < < < "};
