/* XPM */
static char *dummy[]={
"64 64 314 2",
".f c #000000",
"cZ c #010101",
"cM c #030303",
"cX c #040404",
"a7 c #090909",
"cY c #0d0d0d",
".V c #0f0f0f",
"aA c #101010",
"cW c #111111",
"#7 c #181818",
"aT c #1a1a1a",
".W c #1e1e1e",
".E c #202020",
"aU c #2d2d2d",
".D c #2e2e2e",
"ax c #393939",
".F c #3a3a3a",
"a8 c #3d3d3d",
".g c #3e3e3e",
"cd c #3f201a",
".p c #3f3f3f",
"ce c #40211b",
"cf c #41221c",
"bL c #41231d",
"ck c #42241e",
"bu c #43241e",
"bU c #44251f",
"bj c #442620",
"bF c #452721",
"bC c #462822",
"bZ c #472923",
"bi c #472a24",
"bk c #482a25",
"bK c #492b26",
"b5 c #4a2c27",
"bG c #4a2d27",
"bM c #4b2e28",
"bc c #4c2f29",
"bR c #4d302a",
"c0 c #4d3532",
".4 c #4e312b",
"cw c #4e322c",
"#E c #4f322d",
"ab c #4f332e",
"#6 c #4f4f4f",
"bS c #50342f",
"#s c #503530",
"#V c #513530",
"bv c #523631",
".L c #533731",
"#m c #543832",
"cg c #543933",
"#D c #553934",
"ar c #563a35",
"#W c #573c37",
"bE c #573d38",
"aq c #583e39",
"#J c #593f3a",
"aa c #5a403b",
"#0 c #5a413b",
".A c #5b413c",
"cm c #5c4744",
".K c #5d423e",
"cq c #5e433f",
"av c #5e4540",
"cI c #5f4641",
".U c #5f5f5f",
"cP c #604742",
"#n c #606060",
".8 c #614843",
"ac c #614944",
"#N c #616161",
"c. c #624945",
".3 c #62504c",
"ae c #634a45",
".z c #634a46",
"#K c #644b47",
"ct c #644c47",
"#l c #644d48",
"#v c #654e49",
"bX c #664f4a",
"#i c #67504b",
".5 c #68504b",
"#F c #68514c",
"#j c #69514e",
"#U c #6a534f",
"#w c #6b534f",
"cL c #6b544f",
".n c #6b5550",
"cS c #6c5651",
"#L c #6d5752",
"b4 c #6e5853",
"bQ c #6e5854",
".9 c #6e5955",
"aG c #6f5956",
"cJ c #705a57",
"aF c #705b57",
"#C c #70615f",
"#r c #715c58",
"cF c #715d59",
"al c #717171",
"b8 c #725e59",
"cB c #727272",
".M c #735e5a",
"b. c #737373",
"bT c #745f5b",
"bw c #74605c",
"cb c #75605c",
"cj c #75615c",
"b3 c #75615d",
"#X c #76625e",
"cT c #76625f",
".X c #777777",
"bB c #786460",
"cp c #786461",
".0 c #786562",
"cr c #796663",
"bt c #7a6764",
"#x c #7a7a7a",
".P c #7b6864",
"#S c #7b6965",
"#t c #7b6a65",
"cR c #7b6a66",
"bD c #7c6a67",
"cC c #7d6b68",
"#1 c #7e6c69",
"af c #7e6d6a",
"bs c #7e716f",
"by c #7e7e7e",
"a# c #7f6e6b",
"ah c #7f6f6b",
"cN c #80706c",
"#I c #81706d",
"cQ c #81716e",
"bl c #81726e",
"aJ c #818181",
"b2 c #82726f",
"b9 c #837370",
"bI c #838383",
"bJ c #847471",
"aW c #847572",
"#O c #848484",
"cU c #857673",
"bh c #857774",
"ad c #867875",
"c# c #867876",
"bz c #867e7d",
"bO c #877976",
"as c #877977",
".m c #877a77",
"bH c #887a78",
"#G c #887b79",
"aQ c #897b79",
"b0 c #897c79",
".J c #8a7d7a",
"#T c #8a7e7c",
"cE c #8a7f7c",
"aR c #8a807e",
"cV c #8b7f7d",
".7 c #8b807d",
"bo c #8b8b8b",
"aH c #8c807e",
"#Z c #8c807f",
"aE c #8c817f",
"#2 c #8c8180",
"bP c #8c8280",
"aB c #8c8c8c",
"#k c #8d8281",
".6 c #8d8382",
"#. c #8d8482",
"#Y c #8e8582",
"#h c #8e8583",
".y c #8e8684",
"Qt c #8e8e8e",
"c3 c #8f8583",
"ai c #8f8684",
"bb c #8f8685",
".N c #8f8785",
"#f c #8f8786",
"cu c #8f8886",
"#q c #8f8e8d",
".l c #8f8e8e",
"bW c #8f8f8f",
"au c #908887",
"#u c #908987",
".u c #908988",
"bY c #908a88",
"#A c #908a89",
".o c #908b89",
"ag c #908b8a",
"at c #908c8b",
"ca c #908c8c",
"aI c #908d8c",
".O c #908d8d",
".# c #908e8d",
"aj c #909090",
"cD c #918a89",
"#H c #918b8a",
".a c #918c8b",
"aP c #918d8c",
"#e c #919191",
".t c #939393",
"a5 c #949494",
"#g c #959595",
"cA c #969696",
"aM c #979797",
"#z c #989898",
"aw c #999999",
"an c #9a9a9a",
".q c #9b9b9b",
"#3 c #9c9c9c",
".d c #9e9e9e",
"cx c #9f9b9b",
"cs c #9f9f9f",
"b1 c #a0a0a0",
".Y c #a1a1a1",
"bf c #a2a2a2",
".Z c #a3a3a3",
"aC c #a4a4a4",
"aV c #a5a5a5",
"aD c #a6a6a6",
"cK c #a7a7a7",
"ap c #a8a8a8",
"aL c #a9a9a9",
"ch c #aaaaaa",
"#4 c #ababab",
".h c #acacac",
".C c #adadad",
".I c #aeaeae",
"be c #afafaf",
"#o c #b0b0b0",
"cc c #b1b1b1",
"#R c #b2b2b2",
"#d c #b3b3b3",
"#p c #b4b4b4",
".k c #b5b5b5",
"aO c #b6b6b6",
"## c #b7b7b7",
".i c #b8b8b8",
".c c #b9b9b9",
".H c #bababa",
"cG c #bbbbbb",
"bn c #bcbcbc",
"ao c #bdbdbd",
"br c #beb8b7",
".j c #bebebe",
".2 c #bfbdbd",
".G c #bfbfbf",
"a6 c #c0c0c0",
".x c #c1c0c0",
"ba c #c1c1c1",
"#c c #c2c2c2",
"bg c #c3c2c2",
".B c #c3c3c3",
"b# c #c4c4c4",
".r c #c5c5c5",
"#y c #c6c6c6",
"#M c #c7c7c7",
"#B c #c8c6c5",
".b c #c8c8c8",
"bm c #c9c9c9",
"aN c #cacaca",
"az c #cccccc",
"ak c #cdcdcd",
".s c #cecece",
"bA c #cfcccc",
"bx c #cfcfcf",
"cy c #d0cdcd",
"a9 c #d0d0d0",
"c1 c #d1cece",
"cO c #d1d1d1",
"#b c #d2d2d2",
"aS c #d4d1d0",
"#a c #d4d4d4",
"bp c #d5d4d4",
"cz c #d6d4d4",
"#P c #d6d6d6",
"c2 c #d8d6d5",
".1 c #d9d9d9",
"bV c #dadada",
"cn c #dbd9d9",
"b7 c #dbdbdb",
".w c #dcdbdb",
"aK c #dcdcdc",
"bq c #dddcdc",
"#5 c #dddddd",
".e c #dedede",
"co c #dfdfde",
".v c #dfdfdf",
".Q c #e0e0e0",
"b6 c #e1e1e1",
"ay c #e2e2e2",
"bd c #e3e3e3",
"aX c #e4e4e4",
"ci c #e5e5e5",
"a0 c #e6e6e6",
"a3 c #e7e7e7",
"bN c #e9e9e9",
"a. c #eaeaea",
"aY c #ebebeb",
"aZ c #ececec",
"#8 c #ededed",
"am c #eeeeee",
"cH c #efefef",
"a4 c #f0f0f0",
"cl c #f1f1f1",
"#9 c #f2f2f2",
"#Q c #f3f3f3",
"a1 c #f4f4f4",
"a2 c #f5f5f5",
".T c #f6f6f6",
".R c #f7f7f7",
".S c #f8f8f8",
"cv c #f9f9f9",
"QtQtQtQtQtQtQtQtQtQtQtQtQtQtQtQtQtQtQtQtQtQtQtQtQtQtQtQtQtQtQtQtQtQtQtQtQtQtQtQtQtQtQtQtQtQtQtQtQtQtQtQtQtQtQtQtQtQtQt.#.aQtQtQt",
".b.c.dQtQtQtQtQtQtQtQtQtQtQtQtQtQtQtQtQtQtQtQtQtQtQtQtQtQtQtQtQtQtQtQtQtQtQtQtQtQtQtQtQtQtQtQtQtQtQtQtQtQtQtQtQtQtQtQt.e.e.e.e.e",
".f.g.h.i.j.kQtQtQtQtQtQtQtQtQtQtQtQtQtQtQtQtQtQtQtQtQtQtQtQtQtQtQtQtQtQtQtQtQtQtQtQtQtQtQtQtQtQtQtQtQtQtQtQt.l.m.e.e.e.e.e.e.n.o",
".f.f.f.f.p.q.r.s.h.tQtQtQtQtQtQtQtQtQtQtQtQtQtQtQtQtQtQtQtQtQtQtQtQtQtQtQtQtQtQtQtQtQtQtQtQtQtQtQtQt.l.u.e.e.e.e.v.w.xQtQt.y.z.A",
".B.C.D.f.f.f.E.F.C.G.H.I.dQtQtQtQtQtQtQtQtQtQtQtQtQtQtQtQtQtQtQtQtQtQtQtQtQtQtQtQtQtQtQtQtQtQtQtQt.e.e.e.e.e.e.e.J.K.L.M.N.l.O.P",
".Q.R.S.T.U.V.f.f.f.f.W.X.I.Y.ZQtQtQtQtQtQtQtQtQtQtQtQtQtQtQtQtQtQtQtQtQtQtQtQtQtQtQtQtQtQt.N.0.e.e.e.1.2.3.4.5.6.l.l.7.8.L.9#..l",
".f.U##.B#a.i#b.V.f.f.f.f.f.f.f#c.b#d#eQtQtQtQtQtQtQtQtQtQtQtQtQtQtQtQtQtQtQtQtQt.##fQt#g#a.v.e.e.e.m.lQt.l#h#i.4#j#..l.l#k#l#m.n",
".f.f.f.f.f.f.f.V.f.f.f.f.f.f.f.f.f#n#o.c.j#pQtQtQtQtQtQtQtQtQtQtQtQtQtQtQtQtQtQt.e.e.e.e.e.e#q#.#r#s#m#t#u.l.l#.#v.4.n#h.lQt.y#w",
".f.f.f.f.f.f.f.f.f.f.f.f.f.f.f.f.f.f.f.f.f#x#y.s#d#zQtQtQtQtQtQtQtQtQt#A.e.e.e.e.e#B#C#D#E#F#G.#Qt#H#I#J.4.5.J.#.l#k#K#E#L.y.lQt",
"#M.i#N.f.f.f.f.f.f.f.f.f.f#O#P#Q.k.V.f.f.f.f.f.f#n#R.i.c#dQtQtQtQt.e.e.e.e.e.e#S.N.lQt.O#T#U#V#W#X#Y.##q#Z#j#s#0#1.a.l#2.e.e.e.e",
"Qt#3#4.C.G#o.f.f.f.f.f.f.f.f.f#5.R.S#a#6.f.f.f.f.f.f#7#7#n#8#9a..Q.e.eQt.l.ua#aaabac#I.aQtQt.aadac#maeaf#AQtagah.e.e.e.e.e.e.eai",
"QtQtQtQtaj#4ak.ral.V.f.f.f.f.f.f.W#Mam.Sa..I.f.f.f.f.f.f.f.f.fan#Rao##apQtQtQt.l#f.0aqar.nasatQt.lau#tav#J.5.e.e.e.e.e.eQtQtQtQt",
"QtQtQtQtQtQtQtaw#p#c###O.f.fax.f.f.f.f.fayaz#y.f.f.f.f.f.f.f.f.f.faAaBaC#c#MaDQtQtQt.OaEaFaa#0aGaHaIaJaK.v.e.e.e.eQtQtQtQtQtQtQt",
"QtQtQtQtQtQtQtQtQtQtawaL###caM.f.f.f.f.f.f.f.f.f.f.f.f.f.f.f.f.f.f.f.f.f.f.D.HaNaO.qQtQtQtaPaQaRaS.v.e.e.e.eQtQtQtQtQtQtQtQtQtQt",
"QtQtQtQtQtQtQtQtQtQtQtQtQt#g###a.iaT.f.f.f.f.f.f.f.f.f.f.Q#P.TaU.f.f.f.f.f.f.f.f.U#p##aOaV.e.e.e.e.e.e#J.OQtQtQtQtQtQtQtQtQtQtQt",
"QtQtQtQtQtQtQtQtQtQtaI.PaW.aQt.eaXaYaZa0.g.f.f.f.f.f.f.f.f.Daka1a2.g.f.f.f.f.f.f.f.f.faTa3a4aZ.eQtQt.laPQtQtQtQtQtQtQtQtQtQtQtQt",
"QtQtQtQtQtQtQtQtQtQt#2.e.e.e.e.e.saJa5aD.ia6.ha7.f.f.f.f.f.f.fa8a9.Sa.#6.f.f.f.f.f.f.f.f.f.fb.b#baap#gQtQtQtQtQtQtQtQtQtQtQtQtQt",
"QtQtQtQtQtQtbb.y.l.e.e.e.e.e.ebc#j#2QtQtQtQt.ha9ao.f.f.f.f.f.f.f.falbd.S.B.f.f.f.f.f.f.f.f.f.f.faUbeao.kbfQtQtQtQtQtQtQtQtQtQtQt",
"QtQtQtQtQt.aar.e.e.wbg#OaPbhacbibjbkaablaPQtQtQtaVbmbna8.f.f.f.f.f.f.faT.f.f.f.f.f.f.f.f.f.f.f.f.f.f.f#6#O#c#oQtQtQtQtQtQtQtQtQt",
"QtQtQtQtbobp.ebqbrbsarbt#uQt.l#kaFabbjbubvbwaiQtQtQt#3##bn#O.f.f.f.f.f.f.f.f.f.f.f.f.f.f.f.f.f.f.f.f.f.f.f.faMbx.ibyQtQtQtQtQtQt",
"QtQtbzbA.v.e.e.ebBbvbjbCbc#jaH.#Qt#AbDbEbFbFbG#KbH.OQtQta5aLaYa..f.f.f.f.f.f.f.f.f.f.W.f.f.f.f.f.f.f.f.f.f.f.f.faL#b#dbIQtQtQtQt",
".e.e.e.e.e.eaiQtQtatbJavbKbLbi.KblagQt.OaQ#lbMbubC#J#1#A.e.e.v.Qa.#8.f.f.f.f.f.f.f.faZbN.baO.f.f.f.f.f.f.f.f.f.f.f.faLbm.I#gQtQt",
".e.v.e.ebCbjbG.8bO.OQt.#bPbQbRbFbCbSbTai#q#qaibwabbU.e.e.e.e.eQtQtawb#ba.f.f.f.f.f.f.V.kay.TbV.f.f.f.f.f.f.f.f.f.f.f.f.f.h#c#zbW",
".e.eQt.#.JbXbcbjbjbE#tbYQt.lbY#1aqbZbLbM#Kb0.l.l.e.e.e.e.eQtQtQtQtQtQtb1a9#R.f.f.f.f.f.f.fa6a4amaL.f.f.f.f.f.f.f.f.f.f.f.f.f#obn",
"b2agQtQtQt.l#fb3bvbUbC#Eb4.6#qQtaI#G#Kb5bFbC#D.e.e.e.eQt.l.lQtQtQtQtQtQtQt.Ca9.f.f.f.f.f.f.f.Vb6.Sb7.f.f.f.f.f.f.f.f.f.f.f.f.faU",
"bu#Vb8#..#QtQtQtagb9.Kbkbubic.c#caQt.l.ycb.e.e.e.e.eQtQtQtQtQtQtQtQtQtQtQtQtaj.raO.f.f.f.f.f.f.fcc.R#8.D.f.f.f.f.f.f.f.f.f.f.f.f",
"cdcecfbkacbh.OQtQtQt.O.7#jbGbubicg#t.u.l.e.e.e.e.#QtQtQtQtQtQtQtQtQtQtQtQtQtQtQtchaz.f.f.f.f.f.f.f.gci.S.e#6.f.f.f.f.f.f.f.f.f.f",
"#JbCcfcdcfbU#mcj.y.lQtQt.l#f#X#mbZckbc.e.e.e.e.lQtQtQtQtQtQtQtQtQtQtQtQtQtQtQtQtQt.t#b.f.f.f.f.f.f.f.fbxaZclaU.f.f.f.f.f.f.f.f.f",
"aI.J#FbcbLcecdckb5.zad.aQtQtQtatb2cmcnco.eQtQtQtQtQtQtQtQtQtQtQtQtQtQtQtQtQtQtQtQtQtQt.GbI.f.f.f.f.f.f.f.Cbm.f.f.f.f.f.f.f.f.f.f",
"QtQt.laubtarbFcfcecebF#DcpbYQtQtaJ#5.v.eb3QtQtQtQtQtQtQtQtQtQtQtQtQtQtQtQtQtQtQtQtQtQtQtbnbI.f.f.f.f.f.f.fal.f.f.f.f.f.f.f.f.f.f",
".#QtQtQtQtaPasbXbGbLcecebLbM#vbH.e.e.e.eQtQtQtQtQtQtQtQtQtQtQtQtQtQtQtQtQtQtQtQtQtQtQtQt.qaoa8.f.f.f.f.f.f.f.f.f.f.f.f.f.f.f.f.f",
"cqcr#kaPQtQtQt.l.NbBcgbFcececf.e.e.e.eQtQtQtQtQtQtQtQtQtQtQtQtQtQtQtQtQtQtQtQtQtQtQtQtQtQtcsb#.f.f.f.f.f.f.f.f.f.f.f.f.f.f.f.f.f",
"cfbLbZcg.9as#HQtQtQt.abhaebK.e.e.e.eQtQtQtQtQtQtQtQtQtQtQtQtQtQtQtQtQtQtQtQtQtQtQtQtQtQtQtQt.Icc.f.f.f.f.f.f.f.f.f.f.f.f.f.f.f.f",
"bjcfcdcfcebj#Ectahcu.lQt.l#h.e.e.e.e.lQtQtQtQtQtQtQtQtQtQtQtQtQtQtQtQtQtQtQtQtQtQtQtQtQtQtQta5.j.W.f.f.f.f.f.f.f.f.f.f.f.f.f.f.f",
"ad#w.LbZbLcdcecdbub5#0#XaE.e.e.e.e.lQtQtQtQtQtQtQtQtQtQtQtQtQtQtQtQtQtQtQtQtQtQtQtQtQtQtQtQtQt.Y.C.f.f.f.f.f.f.f.f.f.T#R.f.f.f.f",
"Qt.l.a#Z#X#0b5ckcececdbLbZ.e.e.e#qQtQtQtQtQtQtQtQtQtQtQtQtQtQtQtQtQtQtQtQtQtQtQtQtQtQtQtQtQtQtQt.i.f.f.f.f.f.f.f.f.f.1cva6.f.f.f",
"QtQtQtQtQt.O.Nah#Kcwbjcfce.e.e.e.#.lQtQtQtQtQtQtQtQtQtQtQtQtQtQtQtQtQtQtQtQtQtQtQtQtQtQtQtQtQtQt.i.V.f.f.f.f.f.f.f.f.faKcl.W.f.f",
"#w#Xb2.7#f.aQtQt.l.Oatagcxcycz.e.l.lQtQtQtQtQtQtQtQtQtQtQtQtQtQtQtQtQtQtQtQtQtQtQtQtQtQtQtQtQtQt.IcA.f.f.f.f.f.f.f.f.fcBcvaL.f.f",
"cecfbubjbKab#J#K.MbJ#haP.e.e.e.lQt.lQtQtQtQtQtQtQtQtQtQtQtQtQtQtQtQtQtQtQtQtQtQtQtQtQtQtQtQtQtQtQt#c.f.f.f.f.f.f.f.f.f.fa4ay.f.f",
"bucfcfcdcececdcfcfbLbFbi.e.e.e#k.l.lQtQtQtQtQtQtQtQtQtQtQtQtQtQtQtQtQtQtQtQtQtQtQtQtQtQtQtQtQtQtQtaz.f.f.f.f.f.f.f.f.f.f##a1.D.f",
".u.6bOcCb4bSbCbUbLcecfcd.e.e.ecfca.lQtQtQtQtQtQtQtQtQtQtQtQtQtQtQtQtQtQtQtQtQtQtQtQtQtQtQtQtQtQtQtb#.f.f.f.f.f.f.f.f.f.f.f.R.k.f",
"QtQtQt.l.#aIagcD.ycE#1cF.e.e.eb9#qQtQtQtQtQtQtQtQtQtQtQtQtQtQtQtQtQtQtQtQtQtQtQtQtQtQtQtQtQtQtQtQtcG.f.f.f.f.f.f.f.f.f.f.f.Ra9.f",
".#.l.l.l.l.l.lQtQtQt.l#q.e.e.eag.lQtQtQtQtQtQtQtQtQtQtQtQtQtQtQtQtQtQtQtQtQtQtQtQtQtQtQtQtQtQtQtQtcc.f.f.f.f.f.f.f.f.f.f.fcHb7.U",
"cebLb5cIaFb9#Y.u.a.O.#.#.e.e.e.l.lQtQtQtQtQtQtQtQtQtQtQtQtQtQtQtQtQtQtQtQtQtQtQtQtQtQtQtQtQtQtQtQt.B.f.f.f.f.f.f.f.f.f.f.f.QbV.B",
"cdcdcdcdcdcdcdcdcecebk#W.e.e.e.y.uQtQtQtQtQtQtQtQtQtQtQtQtQtQtQtQtQtQtQtQtQtQtQtQtQtQtQtQtQtQtQtQtak.f.f.f.f.f.f.f.f.f.f.f#O#8#M",
"bLbLcececdcdcdcdcdcdcdcd.e.e.ecd#1.o.lQtQtQtQtQtQtQtQtQtQtQtQtQtQtQtQtQtQtQtQtQtQtQtQtQtQtQtQtQtQtba.f.f.f.f.f.f.f.f.f.f.f.faZ#d",
"b2bB.9#K#0#m.4bkbCbuckce.e.e.e.ecJ#q.#QtQtQtQtQtQtQtQtQtQtQtQtQtQtQtQtQtQtQtQtQtQtQtQtQtQtQtQtQtcK.h.f.f.f.f.f.f.f.f.f.f.f.f.f.f",
"QtQtQt.l.OaP.o.NaHas#1b3cL.e.e.eaG.l.lQtQtQtQtQtQtQtQtQtQtQtQtQtQtQtQtQtQtQtQtQtQtQtQtQtQtQtQtQt#R#6.f.f.f.f.f.f.f.f.f.f.f.f.fcM",
"QtQtQtQtQtQtQtQtQtQtQtQt.l.e.e.ecD.lQtQtQtQtQtQtQtQtQtQtQtQtQtQtQtQtQtQtQtQtQtQtQtQtQtQtQtQtQtQt##.W.f.f.f.f.f.f.f.f.f.f.f.f.f.f",
".lQtQtQtQtQtQtQtQtQtQtQtQt.e.e.eQtQtQtQtQtQtQtQtQtQtQtQtQtQtQtQtQtQtQtQtQtQtQtQtQtQtQtQtQtQtQtQtao.f.f.f.f.f.f.f.f.f.f.f.f.f.f.f",
".8#FaFcrcNc#aH#hau#HaP.OQt.e.e.e.eQtQtQtQtQtQtQtQtQtQtQtQtQtQtQtQtQtQtQtQtQtQtQtQtQtQtQtQtQtQt.d.i.f.f.f.f.f.f.f.f.f.f.f.f.f.f.f",
"cdcdcecfbLbubFbibMabar.A#KcL.e.e.e.aQtQtQtQtQtQtQtQtQtQtQtQtQtQtQtQtQtQtQtQtQtQtQtQtQtQtQtQtQtba#n.f.f.f.f.f.f.f.f.f.f.f.f.f.f.f",
"cdcdcdcdcdcdcdcdcdcdcdcdcece.e.e.ebjcDQtQtQtQtQtQtQtQtQtQtQtQtQtQtQtQtQtQtQtQtQtQtQtQtQtQtQtQtcO.f.f.f.f.f.f.f.f.f.f.f.f.f.f.f.f",
"cdcdcdcdcdcdcdcdcdcdcdcdcdcd.e.e.e.ecP.lQtQtQtQtQtQtQtQtQtQtQtQtQtQtQtQtQtQtQtQtQtQtQtQtQtQt.I.C.f.f.f.f.f.f.f.f.f.f.f.f.f.f.f.f",
"bKbCbUckcfcfcececdcdcdcdcdcdcd.e.e.ecd.aQtQtQtQtQtQtQtQtQtQtQtQtQtQtQtQtQtQtQtQtQtQtQtQtQtQt.r.V.f.f.f.f.f.f.f.f.f.f.f.f.f.f.f.f",
"bbaHb0cQcR#rcSac.K#mbSbGbibFbu.e.e.e.ebPQtQtQtQtQtQtQtQtQtQtQtQtQtQtQtQtQtQtQtQtQtQtQtQtQtb1aO.f.f.f.f.f.f.f.f.f.f.f.f.f.f.f.f.f",
"QtQtQtQtQtQt.l.l.OaP.#aI.a.l#q#q.e.e.e.lQtQtQtQtQtQtQtQtQtQtQtQtQtQtQtQtQtQtQtQtQtQtQtQtQt###6.f.f.f.f.f.f.f.f.f.f.f.f.f.f.f.f.f",
"QtQtQtQtQtQtQtQtQtQtQtQtQtQtQtQt.e.e.e.eQtQtQtQtQtQtQtQtQtQtQtQtQtQtQtQtQtQtQtQtQtQtQtQt#z.H.f.f.f.f.f.f.f.f.f.f.f.f.f.f.f.f.f.f",
".aaPaI.#QtQtQtQtQtQtQtQtQtQtQtQt.d#ab7.eQtQtQtQtQtQtQtQtQtQtQtQtQtQtQtQtQtQtQtQtQtQtQtQt#RcA.f.f.f.f.f.f.f.f.f.f.f.f.f.f.f.f.f.f",
"#V#m#J#0ac#K#w#LbwcTcCahcUascVaE#h.e.e.e.a.#QtQtQtQtQtQtQtQtQtQtQtQtQtQtQtQtQtQtQtQtQtQt.GcW.fcXcY.f.fcZ.f.f.f.f.f.f.f.f.f.f.f.f",
"cdcdcdcdcdcecdcececfcfckckbUbjbZbic0c1c2.ecg.OQtQtQtQtQtQtQtQtQtQtQtQtQtQtQtQtQtQtQtQt.CbI.f.f.f.f.f.f.f.f.f.f.f.f.f.f.f.f.f.f.f",
"cdcdcdcdcdcdcdcdcdcdcdcdcdcdcdcdcdcd.e.e.ecdav.lQtQtQtQtQtQtQtQtQtQtQtQtQtQtQtQtQtQtQt#c.f.f.f.f.f.f.f.f.f.f.f.f.f.f.f.f.f.f.f.f",
"cdcdcdcdcdcdcdcdcdcdcdcdcdcdcdcdcdcdcd.e.e.ecdc3QtQtQtQtQtQtQtQtQtQtQtQtQtQtQtQtQtQtcG.g.f.f.f.f.f.f.f.f.f.f.f.f.f.f.f.f.f.f.f.f",
"cgbS#EbMbKbibFbFbububLbLcfcfcececdcdcd.e.e.e.eab.lQtQtQtQtQtQtQtQtQtQtQtQtQtQtQtQtcs.HaA.f.f.f.f.f.f.f.f.f.f.f.f.f.f.f.f.f.f.f.f"};
